<?xml version="1.0" encoding="UTF-8" standalone="no"?>
<!DOCTYPE svg PUBLIC "-//W3C//DTD SVG 1.1//EN" "http://www.w3.org/Graphics/SVG/1.1/DTD/svg11.dtd">
<svg version="1.1" xmlns="http://www.w3.org/2000/svg" xmlns:xlink="http://www.w3.org/1999/xlink" preserveAspectRatio="xMidYMid meet" viewBox="0 0 640 400" width="640" height="400"><defs><path d="M607.32 18.21C614.32 18.21 620 23.89 620 30.89C620 102.21 620 303.5 620 374.82C620 381.82 614.32 387.5 607.32 387.5C489.86 387.5 150.14 387.5 32.68 387.5C25.68 387.5 20 381.82 20 374.82C20 303.5 20 102.21 20 30.89C20 23.89 25.68 18.21 32.68 18.21C150.14 18.21 489.86 18.21 607.32 18.21Z" id="lYClsSQ6"></path><path d="M218.86 16.81L218.86 50L20 50C20 39.15 20 32.37 20 29.66C20 22.56 25.76 16.81 32.85 16.81C57.66 16.81 119.66 16.81 218.86 16.81Z" id="b1DBb0SZDr"></path><path d="M420 16.81L420 50L620 50C620 39.19 620 32.44 620 29.73C620 22.59 614.21 16.81 607.07 16.81C582.13 16.81 519.77 16.81 420 16.81Z" id="dafsRw3dia"></path><path d="M420 16.81L220 16.81L220 50L420 50L420 16.81Z" id="c3iQ67wyPb"></path><path d="M574.4 75C577.74 75 580.45 77.71 580.45 81.05C580.45 87.34 580.45 100.72 580.45 107.15C580.45 110.1 578.05 112.5 575.1 112.5C472.08 112.5 168.93 112.5 66.05 112.5C62.71 112.5 60 109.79 60 106.45C60 100.16 60 86.78 60 80.35C60 77.4 62.4 75 65.35 75C168.37 75 471.52 75 574.4 75Z" id="c4TydE8i9a"></path><path d="M573.95 275C577.29 275 580 277.71 580 281.05C580 287.34 580 300.72 580 307.15C580 310.1 577.6 312.5 574.65 312.5C471.72 312.5 168.84 312.5 66.05 312.5C62.71 312.5 60 309.79 60 306.45C60 300.16 60 286.78 60 280.35C60 277.4 62.4 275 65.35 275C168.28 275 471.16 275 573.95 275Z" id="c101KWu1e"></path><path d="M573.95 175C577.29 175 580 177.71 580 181.05C580 187.34 580 200.72 580 207.15C580 210.1 577.6 212.5 574.65 212.5C471.72 212.5 168.84 212.5 66.05 212.5C62.71 212.5 60 209.79 60 206.45C60 200.16 60 186.78 60 180.35C60 177.4 62.4 175 65.35 175C168.28 175 471.16 175 573.95 175Z" id="a1e5t17hdm"></path><path d="M250 125L398.1 125L398.1 150L250 150L250 125Z" id="atSQprRT4"></path><path d="M250 225L400 225L400 250L250 250L250 225Z" id="aipmui03n"></path><path d="M110 337.5L260 337.5L260 362.5L110 362.5L110 337.5Z" id="c3A0DfyrD8"></path><path d="M390 337.5L540 337.5L540 362.5L390 362.5L390 337.5Z" id="ifwSEXKoV"></path></defs><g><g><g><g><use xlink:href="#lYClsSQ6" opacity="1" fill-opacity="0" stroke="#929292" stroke-width="3" stroke-opacity="1"></use></g></g><g><use xlink:href="#b1DBb0SZDr" opacity="1" fill="#929292" fill-opacity="1"></use><g><use xlink:href="#b1DBb0SZDr" opacity="1" fill-opacity="0" stroke="#929292" stroke-width="3" stroke-opacity="1"></use></g></g><g><use xlink:href="#dafsRw3dia" opacity="1" fill="#a22b37" fill-opacity="1"></use><g><use xlink:href="#dafsRw3dia" opacity="1" fill-opacity="0" stroke="#a22b37" stroke-width="3" stroke-opacity="1"></use></g></g><g><use xlink:href="#c3iQ67wyPb" opacity="1" fill="#929292" fill-opacity="1"></use><g><use xlink:href="#c3iQ67wyPb" opacity="1" fill-opacity="0" stroke="#929292" stroke-width="3" stroke-opacity="1"></use></g></g><g><use xlink:href="#c4TydE8i9a" opacity="1" fill="#929292" fill-opacity="0.4"></use></g><g><use xlink:href="#c101KWu1e" opacity="1" fill="#929292" fill-opacity="0.4"></use></g><g><use xlink:href="#a1e5t17hdm" opacity="1" fill="#929292" fill-opacity="0.4"></use></g><g><use xlink:href="#atSQprRT4" opacity="1" fill="#a22b37" fill-opacity="0.49"></use></g><g><use xlink:href="#aipmui03n" opacity="1" fill="#a22b37" fill-opacity="0.49"></use></g><g><use xlink:href="#c3A0DfyrD8" opacity="1" fill="#a22b37" fill-opacity="0.49"></use></g><g><use xlink:href="#ifwSEXKoV" opacity="1" fill="#a22b37" fill-opacity="0.49"></use></g></g></g></svg>