<?xml version="1.0" encoding="UTF-8" standalone="no"?>
<!DOCTYPE svg PUBLIC "-//W3C//DTD SVG 1.1//EN" "http://www.w3.org/Graphics/SVG/1.1/DTD/svg11.dtd">
<svg version="1.1" xmlns="http://www.w3.org/2000/svg" xmlns:xlink="http://www.w3.org/1999/xlink" preserveAspectRatio="xMidYMid meet" viewBox="0 0 640 400" width="640" height="400"><defs><path d="M607.32 18.21C614.32 18.21 620 23.89 620 30.89C620 102.21 620 303.5 620 374.82C620 381.82 614.32 387.5 607.32 387.5C489.86 387.5 150.14 387.5 32.68 387.5C25.68 387.5 20 381.82 20 374.82C20 303.5 20 102.21 20 30.89C20 23.89 25.68 18.21 32.68 18.21C150.14 18.21 489.86 18.21 607.32 18.21Z" id="a66aMOhD2m"></path><path d="M575.66 262.5C580.82 262.5 585 266.68 585 271.84C585 287.26 585 325.82 585 387.5L435 387.5C435 325.82 435 287.26 435 271.84C435 266.68 439.18 262.5 444.34 262.5C472.47 262.5 547.53 262.5 575.66 262.5Z" id="b1jNh9C97J"></path><path d="M195.66 262.5C200.82 262.5 205 266.68 205 271.84C205 287.26 205 325.82 205 387.5L55 387.5C55 325.82 55 287.26 55 271.84C55 266.68 59.18 262.5 64.34 262.5C92.47 262.5 167.53 262.5 195.66 262.5Z" id="a6EuHGDDu"></path><path d="M390.66 262.5C395.82 262.5 400 266.68 400 271.84C400 287.26 400 325.82 400 387.5L250 387.5C250 325.82 250 287.26 250 271.84C250 266.68 254.18 262.5 259.34 262.5C287.47 262.5 362.53 262.5 390.66 262.5Z" id="avTQOkE3i"></path><path d="M217.08 16.81L217.08 50L20 50C20 39.09 20 32.27 20 29.55C20 22.51 25.7 16.81 32.74 16.81C57.32 16.81 118.77 16.81 217.08 16.81Z" id="abQkH50yol"></path><path d="M420 16.81L420 50L620 50C620 39.19 620 32.44 620 29.73C620 22.59 614.21 16.81 607.07 16.81C582.13 16.81 519.77 16.81 420 16.81Z" id="a23MAzCqaU"></path><path d="M420 16.81L220 16.81L220 50L420 50L420 16.81Z" id="d3F1f29Uzk"></path><path d="M195.51 62.5C200.75 62.5 205 66.75 205 71.99C205 106.42 205 200.21 205 234.64C205 239.88 200.75 244.13 195.51 244.13C167.41 244.13 92.59 244.13 64.49 244.13C59.25 244.13 55 239.88 55 234.64C55 200.21 55 106.42 55 71.99C55 66.75 59.25 62.5 64.49 62.5C92.59 62.5 167.41 62.5 195.51 62.5Z" id="bltFs43vS"></path><path d="M385.51 62.5C390.75 62.5 395 66.75 395 71.99C395 106.42 395 200.21 395 234.64C395 239.88 390.75 244.13 385.51 244.13C357.41 244.13 282.59 244.13 254.49 244.13C249.25 244.13 245 239.88 245 234.64C245 200.21 245 106.42 245 71.99C245 66.75 249.25 62.5 254.49 62.5C282.59 62.5 357.41 62.5 385.51 62.5Z" id="a9t3XpiE5G"></path><path d="M575.51 62.5C580.75 62.5 585 66.75 585 71.99C585 106.42 585 200.21 585 234.64C585 239.88 580.75 244.13 575.51 244.13C547.41 244.13 472.59 244.13 444.49 244.13C439.25 244.13 435 239.88 435 234.64C435 200.21 435 106.42 435 71.99C435 66.75 439.25 62.5 444.49 62.5C472.59 62.5 547.41 62.5 575.51 62.5Z" id="b2MQWQUSY"></path></defs><g><g><g><g><use xlink:href="#a66aMOhD2m" opacity="1" fill-opacity="0" stroke="#929292" stroke-width="3" stroke-opacity="1"></use></g></g><g><use xlink:href="#b1jNh9C97J" opacity="1" fill="#929292" fill-opacity="0.4"></use></g><g><use xlink:href="#a6EuHGDDu" opacity="1" fill="#929292" fill-opacity="0.4"></use></g><g><use xlink:href="#avTQOkE3i" opacity="1" fill="#929292" fill-opacity="0.4"></use></g><g><use xlink:href="#abQkH50yol" opacity="1" fill="#a22b37" fill-opacity="1"></use><g><use xlink:href="#abQkH50yol" opacity="1" fill-opacity="0" stroke="#a22b37" stroke-width="3" stroke-opacity="1.00"></use></g></g><g><use xlink:href="#a23MAzCqaU" opacity="1" fill="#929292" fill-opacity="1"></use><g><use xlink:href="#a23MAzCqaU" opacity="1" fill-opacity="0" stroke="#929292" stroke-width="3" stroke-opacity="1"></use></g></g><g><use xlink:href="#d3F1f29Uzk" opacity="1" fill="#929292" fill-opacity="1"></use><g><use xlink:href="#d3F1f29Uzk" opacity="1" fill-opacity="0" stroke="#929292" stroke-width="3" stroke-opacity="1"></use></g></g><g><use xlink:href="#bltFs43vS" opacity="1" fill="#929292" fill-opacity="0.4"></use></g><g><use xlink:href="#a9t3XpiE5G" opacity="1" fill="#a22b37" fill-opacity="0.5"></use></g><g><use xlink:href="#b2MQWQUSY" opacity="1" fill="#929292" fill-opacity="0.4"></use></g></g></g></svg>