<?xml version="1.0" encoding="UTF-8" standalone="no"?>
<!DOCTYPE svg PUBLIC "-//W3C//DTD SVG 1.1//EN" "http://www.w3.org/Graphics/SVG/1.1/DTD/svg11.dtd">
<svg version="1.1" xmlns="http://www.w3.org/2000/svg" xmlns:xlink="http://www.w3.org/1999/xlink" preserveAspectRatio="xMidYMid meet" viewBox="0 0 640 400" width="640" height="400"><defs><path d="M607.32 18.21C614.32 18.21 620 23.89 620 30.89C620 102.21 620 303.5 620 374.82C620 381.82 614.32 387.5 607.32 387.5C489.86 387.5 150.14 387.5 32.68 387.5C25.68 387.5 20 381.82 20 374.82C20 303.5 20 102.21 20 30.89C20 23.89 25.68 18.21 32.68 18.21C150.14 18.21 489.86 18.21 607.32 18.21Z" id="b2a0oH4WrN"></path><path d="M218.86 16.81L218.86 50L20 50C20 39.15 20 32.37 20 29.66C20 22.56 25.76 16.81 32.85 16.81C57.66 16.81 119.66 16.81 218.86 16.81Z" id="b3dfIJzKf"></path><path d="M420 16.81L420 50L620 50C620 39.19 620 32.44 620 29.73C620 22.59 614.21 16.81 607.07 16.81C582.13 16.81 519.77 16.81 420 16.81Z" id="f18NfvTkC1"></path><path d="M420 16.81L220 16.81L220 50L420 50L420 16.81Z" id="axHIA3nhf"></path><path d="M574.4 75C577.74 75 580.45 77.71 580.45 81.05C580.45 87.34 580.45 100.72 580.45 107.15C580.45 110.1 578.05 112.5 575.1 112.5C504.08 112.5 296.93 112.5 226.05 112.5C222.71 112.5 220 109.79 220 106.45C220 100.16 220 86.78 220 80.35C220 77.4 222.4 75 225.35 75C296.37 75 503.52 75 574.4 75Z" id="e49MOoZzTh"></path><path d="M575.75 137.5C579.08 137.5 581.79 140.21 581.79 143.55C581.79 149.84 581.79 163.22 581.79 169.65C581.79 172.6 579.4 175 576.44 175C505.15 175 297.19 175 226.05 175C222.71 175 220 172.29 220 168.95C220 162.66 220 149.28 220 142.85C220 139.9 222.4 137.5 225.35 137.5C296.64 137.5 504.6 137.5 575.75 137.5Z" id="b23GYojw1"></path><path d="M575.75 200C579.08 200 581.79 202.71 581.79 206.05C581.79 212.34 581.79 225.72 581.79 232.15C581.79 235.1 579.4 237.5 576.44 237.5C505.15 237.5 297.19 237.5 226.05 237.5C222.71 237.5 220 234.79 220 231.45C220 225.16 220 211.78 220 205.35C220 202.4 222.4 200 225.35 200C296.64 200 504.6 200 575.75 200Z" id="k2HIo0YUU"></path><path d="M561.86 262.5C571.88 262.5 580 270.62 580 280.64C580 299.51 580 339.66 580 358.95C580 367.81 572.81 375 563.95 375C461.16 375 170.51 375 68.14 375C58.12 375 50 366.88 50 356.86C50 337.99 50 297.84 50 278.55C50 269.69 57.19 262.5 66.05 262.5C168.84 262.5 459.49 262.5 561.86 262.5Z" id="adkMel8XF"></path><path d="M60 81.34L200 81.34L200 106.34L60 106.34L60 81.34Z" id="a3vWLqorP"></path><path d="M60 144.59L200 144.59L200 169.59L60 169.59L60 144.59Z" id="f4rJWZObM"></path><path d="M60 206.57L200 206.57L200 231.57L60 231.57L60 206.57Z" id="d2MNuR1wei"></path></defs><g><g><g><g><use xlink:href="#b2a0oH4WrN" opacity="1" fill-opacity="0" stroke="#929292" stroke-width="3" stroke-opacity="1"></use></g></g><g><use xlink:href="#b3dfIJzKf" opacity="1" fill="#929292" fill-opacity="1"></use><g><use xlink:href="#b3dfIJzKf" opacity="1" fill-opacity="0" stroke="#929292" stroke-width="3" stroke-opacity="1"></use></g></g><g><use xlink:href="#f18NfvTkC1" opacity="1" fill="#929292" fill-opacity="1"></use><g><use xlink:href="#f18NfvTkC1" opacity="1" fill-opacity="0" stroke="#929292" stroke-width="3" stroke-opacity="1"></use></g></g><g><use xlink:href="#axHIA3nhf" opacity="1" fill="#a22b37" fill-opacity="1"></use><g><use xlink:href="#axHIA3nhf" opacity="1" fill-opacity="0" stroke="#a22b37" stroke-width="3" stroke-opacity="0.88"></use></g></g><g><use xlink:href="#e49MOoZzTh" opacity="1" fill="#929292" fill-opacity="0.4"></use></g><g><use xlink:href="#b23GYojw1" opacity="1" fill="#929292" fill-opacity="0.4"></use></g><g><use xlink:href="#k2HIo0YUU" opacity="1" fill="#929292" fill-opacity="0.4"></use></g><g><use xlink:href="#adkMel8XF" opacity="1" fill="#929292" fill-opacity="0.4"></use></g><g><use xlink:href="#a3vWLqorP" opacity="1" fill="#a22b37" fill-opacity="0.49"></use></g><g><use xlink:href="#f4rJWZObM" opacity="1" fill="#a22b37" fill-opacity="0.49"></use></g><g><use xlink:href="#d2MNuR1wei" opacity="1" fill="#a22b37" fill-opacity="0.49"></use></g></g></g></svg>